<mxfile host="app.diagrams.net" modified="2020-11-10T14:58:57.594Z" agent="5.0 (Windows NT 10.0; Win64; x64) AppleWebKit/537.36 (KHTML, like Gecko) Chrome/86.0.4240.183 Safari/537.36" etag="W7JjGgXCEb_KqKjmrvmt" version="13.9.2" type="github">
  <diagram id="kgpKYQtTHZ0yAKxKKP6v" name="Page-1">
    <mxGraphModel dx="981" dy="526" grid="1" gridSize="10" guides="1" tooltips="1" connect="1" arrows="1" fold="1" page="1" pageScale="1" pageWidth="850" pageHeight="1100" math="0" shadow="0">
      <root>
        <mxCell id="0" />
        <mxCell id="1" parent="0" />
        <mxCell id="3nuBFxr9cyL0pnOWT2aG-1" value="业务（渲染进程）" style="shape=umlLifeline;perimeter=lifelinePerimeter;container=1;collapsible=0;recursiveResize=0;rounded=0;shadow=0;strokeWidth=1;" parent="1" vertex="1">
          <mxGeometry x="70" y="80" width="120" height="470" as="geometry" />
        </mxCell>
        <mxCell id="CE0omR0g4Z4-vGxCL9sx-32" value="" style="points=[];perimeter=orthogonalPerimeter;rounded=0;shadow=0;strokeWidth=1;" vertex="1" parent="3nuBFxr9cyL0pnOWT2aG-1">
          <mxGeometry x="55" y="150" width="10" height="200" as="geometry" />
        </mxCell>
        <mxCell id="3nuBFxr9cyL0pnOWT2aG-5" value="Electron（主进程）" style="shape=umlLifeline;perimeter=lifelinePerimeter;container=1;collapsible=0;recursiveResize=0;rounded=0;shadow=0;strokeWidth=1;" parent="1" vertex="1">
          <mxGeometry x="230" y="80" width="130" height="470" as="geometry" />
        </mxCell>
        <mxCell id="CE0omR0g4Z4-vGxCL9sx-33" value="" style="points=[];perimeter=orthogonalPerimeter;rounded=0;shadow=0;strokeWidth=1;" vertex="1" parent="3nuBFxr9cyL0pnOWT2aG-5">
          <mxGeometry x="55" y="220" width="10" height="70" as="geometry" />
        </mxCell>
        <mxCell id="CE0omR0g4Z4-vGxCL9sx-45" value="升级安装" style="rounded=1;whiteSpace=wrap;html=1;" vertex="1" parent="3nuBFxr9cyL0pnOWT2aG-5">
          <mxGeometry x="30" y="320" width="70" height="30" as="geometry" />
        </mxCell>
        <mxCell id="CE0omR0g4Z4-vGxCL9sx-1" value="mms-other（latest.yml）" style="shape=umlLifeline;perimeter=lifelinePerimeter;container=1;collapsible=0;recursiveResize=0;rounded=0;shadow=0;strokeWidth=1;" vertex="1" parent="1">
          <mxGeometry x="380" y="80" width="140" height="470" as="geometry" />
        </mxCell>
        <mxCell id="CE0omR0g4Z4-vGxCL9sx-24" value="" style="points=[];perimeter=orthogonalPerimeter;rounded=0;shadow=0;strokeWidth=1;" vertex="1" parent="CE0omR0g4Z4-vGxCL9sx-1">
          <mxGeometry x="65" y="110" width="10" height="210" as="geometry" />
        </mxCell>
        <mxCell id="CE0omR0g4Z4-vGxCL9sx-4" value="volantis" style="shape=umlLifeline;perimeter=lifelinePerimeter;container=1;collapsible=0;recursiveResize=0;rounded=0;shadow=0;strokeWidth=1;" vertex="1" parent="1">
          <mxGeometry x="540" y="80" width="100" height="470" as="geometry" />
        </mxCell>
        <mxCell id="CE0omR0g4Z4-vGxCL9sx-19" value="" style="points=[];perimeter=orthogonalPerimeter;rounded=0;shadow=0;strokeWidth=1;" vertex="1" parent="CE0omR0g4Z4-vGxCL9sx-4">
          <mxGeometry x="45" y="80" width="10" height="90" as="geometry" />
        </mxCell>
        <mxCell id="CE0omR0g4Z4-vGxCL9sx-8" value="" style="points=[];perimeter=orthogonalPerimeter;rounded=0;shadow=0;strokeWidth=1;" vertex="1" parent="1">
          <mxGeometry x="270" y="160" height="80" as="geometry" />
        </mxCell>
        <mxCell id="CE0omR0g4Z4-vGxCL9sx-18" value="打包" style="text;html=1;align=center;verticalAlign=middle;resizable=0;points=[];autosize=1;" vertex="1" parent="1">
          <mxGeometry x="500" y="160" width="40" height="20" as="geometry" />
        </mxCell>
        <mxCell id="CE0omR0g4Z4-vGxCL9sx-22" style="edgeStyle=orthogonalEdgeStyle;rounded=0;orthogonalLoop=1;jettySize=auto;html=1;" edge="1" parent="1" source="CE0omR0g4Z4-vGxCL9sx-21" target="CE0omR0g4Z4-vGxCL9sx-4">
          <mxGeometry relative="1" as="geometry">
            <mxPoint x="560" y="170" as="targetPoint" />
            <Array as="points">
              <mxPoint x="520" y="180" />
              <mxPoint x="520" y="180" />
            </Array>
          </mxGeometry>
        </mxCell>
        <mxCell id="CE0omR0g4Z4-vGxCL9sx-21" value="Actor" style="shape=umlActor;verticalLabelPosition=bottom;verticalAlign=top;html=1;" vertex="1" parent="1">
          <mxGeometry x="340" y="150" width="30" height="60" as="geometry" />
        </mxCell>
        <mxCell id="CE0omR0g4Z4-vGxCL9sx-25" value="更新内容" style="text;html=1;align=center;verticalAlign=middle;resizable=0;points=[];autosize=1;" vertex="1" parent="1">
          <mxGeometry x="510" y="185" width="60" height="20" as="geometry" />
        </mxCell>
        <mxCell id="CE0omR0g4Z4-vGxCL9sx-26" style="edgeStyle=orthogonalEdgeStyle;rounded=0;orthogonalLoop=1;jettySize=auto;html=1;" edge="1" parent="1" target="CE0omR0g4Z4-vGxCL9sx-24">
          <mxGeometry relative="1" as="geometry">
            <mxPoint x="140" y="240" as="sourcePoint" />
            <Array as="points">
              <mxPoint x="290" y="240" />
              <mxPoint x="290" y="240" />
            </Array>
          </mxGeometry>
        </mxCell>
        <mxCell id="CE0omR0g4Z4-vGxCL9sx-27" value="检查版本" style="text;html=1;align=center;verticalAlign=middle;resizable=0;points=[];autosize=1;" vertex="1" parent="1">
          <mxGeometry x="150" y="220" width="60" height="20" as="geometry" />
        </mxCell>
        <mxCell id="CE0omR0g4Z4-vGxCL9sx-28" style="edgeStyle=orthogonalEdgeStyle;rounded=0;orthogonalLoop=1;jettySize=auto;html=1;" edge="1" parent="1" source="CE0omR0g4Z4-vGxCL9sx-19" target="CE0omR0g4Z4-vGxCL9sx-1">
          <mxGeometry relative="1" as="geometry">
            <Array as="points">
              <mxPoint x="500" y="205" />
              <mxPoint x="500" y="205" />
            </Array>
          </mxGeometry>
        </mxCell>
        <mxCell id="CE0omR0g4Z4-vGxCL9sx-29" style="edgeStyle=orthogonalEdgeStyle;rounded=0;orthogonalLoop=1;jettySize=auto;html=1;" edge="1" parent="1" source="CE0omR0g4Z4-vGxCL9sx-24">
          <mxGeometry relative="1" as="geometry">
            <mxPoint x="140" y="270" as="targetPoint" />
            <Array as="points">
              <mxPoint x="230" y="270" />
              <mxPoint x="230" y="270" />
            </Array>
          </mxGeometry>
        </mxCell>
        <mxCell id="CE0omR0g4Z4-vGxCL9sx-30" value="新版本" style="text;html=1;align=center;verticalAlign=middle;resizable=0;points=[];autosize=1;" vertex="1" parent="1">
          <mxGeometry x="150" y="250" width="50" height="20" as="geometry" />
        </mxCell>
        <mxCell id="CE0omR0g4Z4-vGxCL9sx-34" value="" style="edgeStyle=orthogonalEdgeStyle;rounded=0;orthogonalLoop=1;jettySize=auto;html=1;" edge="1" parent="1" source="CE0omR0g4Z4-vGxCL9sx-32">
          <mxGeometry relative="1" as="geometry">
            <mxPoint x="290" y="320" as="targetPoint" />
            <Array as="points">
              <mxPoint x="230" y="320" />
              <mxPoint x="230" y="320" />
            </Array>
          </mxGeometry>
        </mxCell>
        <mxCell id="CE0omR0g4Z4-vGxCL9sx-35" value="升级" style="text;html=1;align=center;verticalAlign=middle;resizable=0;points=[];autosize=1;" vertex="1" parent="1">
          <mxGeometry x="155" y="300" width="40" height="20" as="geometry" />
        </mxCell>
        <mxCell id="CE0omR0g4Z4-vGxCL9sx-36" style="edgeStyle=orthogonalEdgeStyle;rounded=0;orthogonalLoop=1;jettySize=auto;html=1;" edge="1" parent="1" source="CE0omR0g4Z4-vGxCL9sx-33" target="CE0omR0g4Z4-vGxCL9sx-1">
          <mxGeometry relative="1" as="geometry">
            <Array as="points">
              <mxPoint x="320" y="320" />
              <mxPoint x="320" y="320" />
            </Array>
          </mxGeometry>
        </mxCell>
        <mxCell id="CE0omR0g4Z4-vGxCL9sx-37" value="检查升级" style="text;html=1;align=center;verticalAlign=middle;resizable=0;points=[];autosize=1;" vertex="1" parent="1">
          <mxGeometry x="300" y="300" width="60" height="20" as="geometry" />
        </mxCell>
        <mxCell id="CE0omR0g4Z4-vGxCL9sx-38" style="edgeStyle=orthogonalEdgeStyle;rounded=0;orthogonalLoop=1;jettySize=auto;html=1;" edge="1" parent="1" source="CE0omR0g4Z4-vGxCL9sx-24" target="3nuBFxr9cyL0pnOWT2aG-5">
          <mxGeometry relative="1" as="geometry">
            <Array as="points">
              <mxPoint x="350" y="360" />
              <mxPoint x="350" y="360" />
            </Array>
          </mxGeometry>
        </mxCell>
        <mxCell id="CE0omR0g4Z4-vGxCL9sx-39" value="新版本" style="text;html=1;align=center;verticalAlign=middle;resizable=0;points=[];autosize=1;" vertex="1" parent="1">
          <mxGeometry x="305" y="340" width="50" height="20" as="geometry" />
        </mxCell>
        <mxCell id="CE0omR0g4Z4-vGxCL9sx-40" style="edgeStyle=orthogonalEdgeStyle;rounded=0;orthogonalLoop=1;jettySize=auto;html=1;" edge="1" parent="1" source="CE0omR0g4Z4-vGxCL9sx-33" target="3nuBFxr9cyL0pnOWT2aG-1">
          <mxGeometry relative="1" as="geometry">
            <Array as="points">
              <mxPoint x="190" y="360" />
              <mxPoint x="190" y="360" />
            </Array>
          </mxGeometry>
        </mxCell>
        <mxCell id="CE0omR0g4Z4-vGxCL9sx-41" value="下载完成" style="text;html=1;align=center;verticalAlign=middle;resizable=0;points=[];autosize=1;" vertex="1" parent="1">
          <mxGeometry x="140" y="340" width="60" height="20" as="geometry" />
        </mxCell>
        <mxCell id="CE0omR0g4Z4-vGxCL9sx-42" style="edgeStyle=orthogonalEdgeStyle;rounded=0;orthogonalLoop=1;jettySize=auto;html=1;entryX=0;entryY=0.5;entryDx=0;entryDy=0;" edge="1" parent="1" source="CE0omR0g4Z4-vGxCL9sx-32" target="CE0omR0g4Z4-vGxCL9sx-45">
          <mxGeometry relative="1" as="geometry">
            <Array as="points">
              <mxPoint x="220" y="415" />
              <mxPoint x="220" y="415" />
            </Array>
          </mxGeometry>
        </mxCell>
        <mxCell id="CE0omR0g4Z4-vGxCL9sx-43" value="立即升级" style="text;html=1;align=center;verticalAlign=middle;resizable=0;points=[];autosize=1;" vertex="1" parent="1">
          <mxGeometry x="140" y="395" width="60" height="20" as="geometry" />
        </mxCell>
      </root>
    </mxGraphModel>
  </diagram>
</mxfile>
